<?xml version="1.0" encoding="iso-8859-1"?>
<!-- Generator: Adobe Illustrator 27.0.0, SVG Export Plug-In . SVG Version: 6.00 Build 0)  -->
<svg version="1.1" id="Layer_1" xmlns="http://www.w3.org/2000/svg" xmlns:xlink="http://www.w3.org/1999/xlink" x="0px" y="0px"
	 viewBox="0 0 500 500" style="enable-background:new 0 0 500 500;" xml:space="preserve">
<g id="watermark_1_">
	<g>
		<g id="watermark" style="opacity:0.61;">
			<g>
				<g>
					<g>
						<g>
							<polygon style="fill:#000000;" points="213.765,461.172 208.204,474.017 205.268,474.017 199.726,461.172 202.938,461.172 
								206.846,470.347 210.81,461.172 							"/>
						</g>
						<g>
							<path style="fill:#000000;" d="M223.507,469.741h-7.469c0.275,1.23,1.321,1.982,2.826,1.982c1.046,0,1.798-0.312,2.477-0.954
								l1.523,1.651c-0.917,1.046-2.294,1.597-4.074,1.597c-3.413,0-5.634-2.147-5.634-5.083c0-2.954,2.257-5.083,5.267-5.083
								c2.899,0,5.138,1.945,5.138,5.12C223.562,469.191,223.526,469.503,223.507,469.741 M216.002,468.071h4.863
								c-0.202-1.248-1.138-2.055-2.422-2.055C217.139,466.016,216.204,466.805,216.002,468.071"/>
						</g>
						<g>
							<path style="fill:#000000;" d="M224.735,468.934c0-2.973,2.294-5.083,5.505-5.083c2.074,0,3.707,0.899,4.423,2.514
								l-2.22,1.193c-0.532-0.936-1.321-1.358-2.221-1.358c-1.45,0-2.587,1.009-2.587,2.734c0,1.725,1.138,2.734,2.587,2.734
								c0.899,0,1.688-0.404,2.221-1.358l2.22,1.211c-0.716,1.578-2.349,2.495-4.423,2.495
								C227.029,474.017,224.735,471.907,224.735,468.934"/>
						</g>
						<g>
							<path style="fill:#000000;" d="M242.828,473.393c-0.587,0.422-1.45,0.624-2.331,0.624c-2.33,0-3.688-1.193-3.688-3.542
								v-4.055h-1.523v-2.202h1.523v-2.404h2.863v2.404h2.459v2.202h-2.459v4.019c0,0.844,0.458,1.303,1.229,1.303
								c0.422,0,0.844-0.128,1.156-0.367L242.828,473.393z"/>
						</g>
					</g>
					<g>
						<path style="fill:#000000;" d="M262.474,463.997v2.643c-0.238-0.018-0.422-0.037-0.642-0.037
							c-1.578,0-2.624,0.862-2.624,2.753v4.661h-2.863v-9.873h2.734v1.303C259.776,464.493,260.951,463.997,262.474,463.997"/>
					</g>
					<g>
						<path style="fill:#000000;" d="M263.299,472.53l1.009-2.239c1.083,0.789,2.697,1.339,4.239,1.339
							c1.762,0,2.477-0.587,2.477-1.376c0-2.404-7.469-0.752-7.469-5.524c0-2.184,1.762-4,5.413-4c1.615,0,3.267,0.385,4.459,1.138
							l-0.918,2.257c-1.193-0.679-2.422-1.009-3.56-1.009c-1.761,0-2.44,0.66-2.44,1.468c0,2.367,7.468,0.734,7.468,5.45
							c0,2.147-1.78,3.982-5.45,3.982C266.492,474.017,264.437,473.411,263.299,472.53"/>
					</g>
					<g>
						<path style="fill:#000000;" d="M285.428,469.741h-7.469c0.275,1.23,1.321,1.982,2.826,1.982c1.046,0,1.798-0.312,2.477-0.954
							l1.523,1.651c-0.918,1.046-2.294,1.597-4.074,1.597c-3.413,0-5.634-2.147-5.634-5.083c0-2.954,2.257-5.083,5.267-5.083
							c2.9,0,5.138,1.945,5.138,5.12C285.484,469.191,285.447,469.503,285.428,469.741 M277.923,468.071h4.863
							c-0.202-1.248-1.138-2.055-2.422-2.055C279.061,466.016,278.125,466.805,277.923,468.071"/>
					</g>
					<g>
						<path style="fill:#000000;" d="M297.007,469.741h-7.469c0.275,1.23,1.321,1.982,2.826,1.982c1.046,0,1.798-0.312,2.477-0.954
							l1.523,1.651c-0.918,1.046-2.294,1.597-4.074,1.597c-3.413,0-5.634-2.147-5.634-5.083c0-2.954,2.257-5.083,5.267-5.083
							c2.899,0,5.138,1.945,5.138,5.12C297.062,469.191,297.025,469.503,297.007,469.741 M289.501,468.071h4.863
							c-0.202-1.248-1.138-2.055-2.422-2.055C290.639,466.016,289.703,466.805,289.501,468.071"/>
					</g>
					<g>
						<polygon style="fill:#000000;" points="303.208,470.145 301.831,471.503 301.831,474.017 298.969,474.017 298.969,460.401 
							301.831,460.401 301.831,468.108 306.016,464.144 309.429,464.144 305.318,468.328 309.796,474.017 306.327,474.017 						"/>
					</g>
					<g>
						<path style="fill:#000000;" d="M256.601,475.359L256.601,475.359l-2.86-2.86c-0.435,0.508-0.953,0.943-1.534,1.284
							c-0.092,0.069-0.186,0.136-0.283,0.199l3.027,3.027c0.456,0.456,1.195,0.456,1.65,0
							C257.057,476.554,257.057,475.815,256.601,475.359"/>
					</g>
					<g>
						<path style="fill:#000000;" d="M249.984,463.244c0.221-0.173,0.495-0.281,0.797-0.281c0.042,0,0.083,0.002,0.124,0.006
							c-0.214-0.156-0.478-0.249-0.764-0.249c-0.395,0-0.744,0.18-0.981,0.458c-0.051,0-0.1,0.006-0.151,0.008
							c0.039-0.077,0.064-0.162,0.064-0.255c0-0.234-0.143-0.434-0.346-0.519c0.087,0.126,0.138,0.279,0.138,0.445
							c0,0.122-0.031,0.237-0.081,0.341c-2.811,0.201-5.03,2.539-5.03,5.4c0,2.993,2.426,5.42,5.42,5.42
							c2.993,0,5.42-2.426,5.42-5.42C254.595,465.879,252.593,463.635,249.984,463.244 M247.983,464.656
							c0.435,0,0.844,0.112,1.199,0.309c0.374-0.245,0.82-0.387,1.299-0.387c0.711,0,1.348,0.312,1.784,0.806
							c-0.435-0.379-1.004-0.61-1.627-0.61c-0.449,0-0.87,0.12-1.234,0.329c-0.079,0.046-0.156,0.096-0.229,0.15
							c-0.065-0.048-0.133-0.093-0.204-0.134c-0.369-0.219-0.8-0.344-1.26-0.344c-0.3,0-0.588,0.054-0.854,0.152
							C247.196,464.754,247.578,464.656,247.983,464.656 M251.772,469.098c0.115,0.305,0.181,0.634,0.181,0.979
							c0,1.534-1.244,2.777-2.778,2.777c-1.534,0-2.777-1.243-2.777-2.777c0-0.345,0.066-0.674,0.181-0.979
							c-0.62-0.382-1.035-1.064-1.035-1.846c0-1.197,0.971-2.168,2.168-2.168c0.565,0,1.078,0.218,1.463,0.572
							c0.386-0.354,0.899-0.572,1.464-0.572c1.197,0,2.168,0.971,2.168,2.168C252.807,468.034,252.392,468.716,251.772,469.098"/>
					</g>
					<g>
						<path style="fill:#000000;" d="M251.666,467.061c0,0.497-0.404,0.901-0.901,0.901c-0.497,0-0.901-0.404-0.901-0.901
							s0.404-0.901,0.901-0.901c0.101,0,0.197,0.017,0.287,0.047c-0.03,0.062-0.045,0.132-0.045,0.204
							c0,0.273,0.221,0.494,0.494,0.494c0.05,0,0.099-0.008,0.146-0.022C251.66,466.941,251.666,467,251.666,467.061"/>
					</g>
					<g>
						<path style="fill:#000000;" d="M248.255,467.061c0,0.376-0.305,0.681-0.681,0.681c-0.376,0-0.681-0.305-0.681-0.681
							s0.305-0.681,0.681-0.681c0.076,0,0.149,0.013,0.217,0.035c-0.023,0.047-0.034,0.1-0.034,0.155
							c0,0.206,0.167,0.374,0.374,0.374c0.038,0,0.075-0.006,0.11-0.017C248.25,466.97,248.255,467.015,248.255,467.061"/>
					</g>
					<g>
						<g>
							<g>
								<rect x="242.908" y="467.83" style="fill:#000000;" width="0.616" height="0.616"/>
							</g>
							<g>
								<rect x="254.827" y="467.83" style="fill:#000000;" width="0.616" height="0.616"/>
							</g>
							<g>
								<path style="fill:#000000;" d="M255.205,468.082h-0.14c0-3.248-2.642-5.89-5.89-5.89c-3.248,0-5.89,2.642-5.89,5.89h-0.14
									c0-1.611,0.627-3.125,1.766-4.264c1.139-1.139,2.653-1.766,4.264-1.766c1.611,0,3.125,0.627,4.264,1.766
									C254.578,464.957,255.205,466.471,255.205,468.082"/>
							</g>
						</g>
						<g>
							<rect x="248.868" y="461.814" style="fill:#000000;" width="0.616" height="0.616"/>
						</g>
						<g>
							<rect x="244.95" y="462.052" style="fill:#000000;" width="8.45" height="0.14"/>
						</g>
						<g>
							<path style="fill:#000000;" d="M245.174,462.15c0,0.108-0.088,0.196-0.196,0.196c-0.108,0-0.196-0.088-0.196-0.196
								c0-0.108,0.088-0.196,0.196-0.196C245.086,461.954,245.174,462.042,245.174,462.15"/>
						</g>
						<g>
							<path style="fill:#000000;" d="M253.596,462.15c0,0.108-0.088,0.196-0.196,0.196c-0.108,0-0.196-0.088-0.196-0.196
								c0-0.108,0.088-0.196,0.196-0.196C253.509,461.954,253.596,462.042,253.596,462.15"/>
						</g>
					</g>
				</g>
				<g>
					<path style="fill:#000000;" d="M314.356,473.409c0,1.559-2.364,1.559-2.364,0C311.993,471.851,314.356,471.851,314.356,473.409
						z"/>
				</g>
				<g>
					<g>
						<g>
							<path style="fill:#000000;" d="M161.739,466.549l1.772,6.088l1.855-6.088h2.215l-2.823,8.14h-2.33l-0.837-2.396l-0.722-2.708
								l-0.722,2.708l-0.837,2.396h-2.33l-2.839-8.14h2.231l1.855,6.088l1.756-6.088H161.739z"/>
						</g>
						<g>
							<path style="fill:#000000;" d="M176.713,466.549l1.772,6.088l1.855-6.088h2.215l-2.823,8.14h-2.33l-0.837-2.396l-0.722-2.708
								l-0.722,2.708l-0.837,2.396h-2.33l-2.839-8.14h2.231l1.855,6.088l1.756-6.088H176.713z"/>
						</g>
						<g>
							<path style="fill:#000000;" d="M191.687,466.549l1.772,6.088l1.855-6.088h2.215l-2.823,8.14h-2.33l-0.837-2.396l-0.722-2.708
								l-0.722,2.708l-0.837,2.396h-2.33l-2.839-8.14h2.231l1.855,6.088l1.756-6.088H191.687z"/>
						</g>
					</g>
					<g>
						<path style="fill:#000000;" d="M200.908,473.52c0,1.559-2.364,1.559-2.364,0C198.545,471.962,200.908,471.962,200.908,473.52z
							"/>
					</g>
					<g>
						<path style="fill:#000000;" d="M322.71,473.409c-0.935,0.919-1.919,1.28-3.117,1.28c-2.346,0-4.3-1.411-4.3-4.282
							s1.953-4.284,4.3-4.284c1.149,0,2.035,0.329,2.921,1.199l-1.264,1.329c-0.476-0.428-1.066-0.64-1.623-0.64
							c-1.346,0-2.33,0.985-2.33,2.396c0,1.542,1.05,2.362,2.297,2.362c0.64,0,1.28-0.18,1.772-0.672L322.71,473.409z"/>
					</g>
					<g>
						<path style="fill:#000000;" d="M331.805,470.472c0,2.33-1.591,4.217-4.217,4.217c-2.626,0-4.201-1.887-4.201-4.217
							c0-2.314,1.609-4.217,4.185-4.217C330.149,466.255,331.805,468.158,331.805,470.472z M325.389,470.472
							c0,1.231,0.739,2.38,2.199,2.38c1.46,0,2.199-1.149,2.199-2.38c0-1.215-0.854-2.396-2.199-2.396
							C326.144,468.077,325.389,469.258,325.389,470.472z"/>
					</g>
					<g>
						<path style="fill:#000000;" d="M338.572,474.689v-4.332c0-1.068-0.559-2.035-1.658-2.035c-1.082,0-1.722,0.967-1.722,2.035
							v4.332h-2.003v-8.107h1.855l0.148,0.985c0.426-0.82,1.362-1.116,2.133-1.116c0.969,0,1.937,0.394,2.396,1.51
							c0.723-1.149,1.658-1.478,2.708-1.478c2.297,0,3.43,1.412,3.43,3.84v4.365h-2.003v-4.365c0-1.066-0.442-1.97-1.526-1.97
							c-1.082,0-1.756,0.935-1.756,2.003v4.332H338.572z"/>
					</g>
				</g>
			</g>
		</g>
		<g style="opacity:0.61;">
			<g>
				<g>
					<path style="fill:#000000;" d="M345.988,431.299c-0.006-1.224-0.959-2.121-2.189-2.14c-0.924-0.014-0.832,0.12-0.834-0.867
						c-0.003-1.097-0.007-2.194,0.003-3.292c0.003-0.379-0.112-0.691-0.362-0.976c-2.342-2.668-4.678-5.342-7.019-8.011
						c-0.12-0.137-0.275-0.244-0.414-0.366c-6.214,0-12.427,0-18.641,0c-0.794,0.293-1.14,0.868-1.138,1.709
						c0.01,3.748,0.004,7.496,0.004,11.243c0,0.556-0.003,0.589-0.55,0.551c-1.497-0.102-2.516,0.986-2.497,2.492
						c0.044,3.476,0.013,6.953,0.014,10.429c0.001,1.58,0.867,2.443,2.45,2.449c0.582,0.002,0.582,0.002,0.582,0.6
						c0,2.219-0.001,4.438,0.001,6.657c0.001,1.192,0.58,1.771,1.768,1.771c8.013,0.001,16.027,0.001,24.04,0
						c1.168,0,1.755-0.583,1.757-1.745c0.002-2.256,0-4.512,0.001-6.768c0-0.512,0.002-0.511,0.52-0.515
						c0.271-0.002,0.541,0.008,0.809-0.058c0.996-0.246,1.69-1.044,1.694-2.069C346.003,438.696,346.005,434.997,345.988,431.299z
						 M317.537,417.162c5.337,0,10.674,0,16.01,0c0.548,0,0.554,0.007,0.554,0.561c0.001,2.243-0.001,4.486,0.001,6.73
						c0.001,0.811,0.249,1.059,1.06,1.059c1.91,0.001,3.821,0,5.731,0.001c0.458,0,0.479,0.021,0.481,0.483
						c0.003,0.887,0.002,1.775,0,2.662c-0.001,0.477-0.024,0.498-0.504,0.499c-3.895,0.001-7.79,0-11.684,0
						c-3.882,0-7.765,0-11.647,0c-0.55,0-0.552-0.001-0.552-0.561c-0.001-3.624-0.001-7.247,0-10.871
						C316.987,417.166,316.991,417.162,317.537,417.162z M340.822,451.579c-3.883,0.001-7.766,0-11.65,0c-3.871,0-7.742,0-11.613,0
						c-0.572,0-0.574-0.002-0.574-0.579c-0.001-1.997-0.001-3.994,0.001-5.991c0-0.464,0.023-0.486,0.478-0.487
						c7.803-0.001,15.607-0.001,23.41,0c0.478,0,0.499,0.02,0.499,0.503c0.002,1.997,0.001,3.994,0,5.991
						C341.375,451.574,341.37,451.579,340.822,451.579z"/>
				</g>
				<g>
					<g>
						<rect x="327.418" y="417.053" style="fill:#000000;" width="1.757" height="1.054"/>
					</g>
					<g>
						<rect x="325.662" y="418.107" style="fill:#000000;" width="1.757" height="1.054"/>
					</g>
					<g>
						<rect x="327.418" y="419.161" style="fill:#000000;" width="1.757" height="1.054"/>
					</g>
					<g>
						<rect x="325.662" y="420.215" style="fill:#000000;" width="1.757" height="1.054"/>
					</g>
					<g>
						<rect x="327.418" y="421.269" style="fill:#000000;" width="1.757" height="1.054"/>
					</g>
					<g>
						<rect x="325.662" y="422.323" style="fill:#000000;" width="1.757" height="1.054"/>
					</g>
					<g>
						<rect x="327.418" y="423.378" style="fill:#000000;" width="1.757" height="1.054"/>
					</g>
					<g>
						<rect x="325.662" y="424.432" style="fill:#000000;" width="1.757" height="1.054"/>
					</g>
					<g>
						<rect x="327.418" y="425.486" style="fill:#000000;" width="1.757" height="1.054"/>
					</g>
					<g>
						<rect x="325.662" y="426.54" style="fill:#000000;" width="1.757" height="1.054"/>
					</g>
					<g>
						<rect x="327.418" y="427.594" style="fill:#000000;" width="1.757" height="1.054"/>
					</g>
					<g>
						<rect x="325.662" y="428.648" style="fill:#000000;" width="1.757" height="1.054"/>
					</g>
				</g>
			</g>
			<g>
				<path style="fill:#000000;" d="M187.637,431.299c-0.006-1.224-0.959-2.121-2.189-2.14c-0.924-0.014-0.832,0.12-0.834-0.867
					c-0.003-1.097-0.007-2.194,0.003-3.292c0.003-0.379-0.112-0.691-0.362-0.976c-2.342-2.668-4.678-5.342-7.019-8.011
					c-0.12-0.137-0.275-0.244-0.414-0.366c-6.214,0-12.427,0-18.641,0c-0.794,0.293-1.14,0.868-1.138,1.709
					c0.01,3.748,0.004,7.496,0.004,11.243c0,0.556-0.003,0.589-0.55,0.551c-1.497-0.102-2.516,0.986-2.497,2.492
					c0.044,3.476,0.013,6.953,0.014,10.429c0.001,1.58,0.867,2.443,2.45,2.449c0.582,0.002,0.582,0.002,0.582,0.6
					c0,2.219-0.001,4.438,0.001,6.657c0.001,1.192,0.58,1.771,1.768,1.771c8.013,0.001,16.027,0.001,24.04,0
					c1.168,0,1.755-0.583,1.757-1.745c0.002-2.256,0-4.512,0.001-6.768c0-0.512,0.002-0.511,0.52-0.515
					c0.271-0.002,0.541,0.008,0.809-0.058c0.996-0.246,1.69-1.044,1.694-2.069C187.652,438.696,187.655,434.997,187.637,431.299z
					 M159.187,417.162c5.337,0,10.674,0,16.01,0c0.548,0,0.554,0.007,0.554,0.561c0.001,2.243-0.001,4.486,0.001,6.73
					c0.001,0.811,0.249,1.059,1.06,1.059c1.91,0.001,3.821,0,5.731,0.001c0.458,0,0.479,0.021,0.481,0.483
					c0.003,0.887,0.002,1.775,0,2.662c-0.001,0.477-0.024,0.498-0.504,0.499c-3.895,0.001-7.79,0-11.684,0
					c-3.882,0-7.765,0-11.647,0c-0.55,0-0.552-0.001-0.552-0.561c-0.001-3.624-0.001-7.247,0-10.871
					C158.636,417.166,158.64,417.162,159.187,417.162z M182.472,451.579c-3.883,0.001-7.766,0-11.65,0c-3.871,0-7.742,0-11.613,0
					c-0.572,0-0.574-0.002-0.574-0.579c-0.001-1.997-0.001-3.994,0.001-5.991c0-0.464,0.023-0.486,0.478-0.487
					c7.803-0.001,15.607-0.001,23.41,0c0.478,0,0.499,0.02,0.499,0.503c0.002,1.997,0.001,3.994,0,5.991
					C183.024,451.574,183.019,451.579,182.472,451.579z"/>
			</g>
			<g>
				<path style="fill:#000000;" d="M159.779,440.669v-7.897h2.779c0.375,0,0.726,0.061,1.053,0.182
					c0.327,0.121,0.612,0.292,0.855,0.513c0.242,0.221,0.434,0.483,0.573,0.789c0.14,0.305,0.21,0.642,0.21,1.009
					c0,0.375-0.07,0.715-0.21,1.02c-0.14,0.305-0.331,0.568-0.573,0.789c-0.243,0.221-0.528,0.392-0.855,0.513
					c-0.327,0.121-0.678,0.182-1.053,0.182h-1.29v2.901H159.779z M162.58,436.356c0.39,0,0.684-0.111,0.882-0.331
					c0.199-0.22,0.298-0.474,0.298-0.761c0-0.14-0.024-0.276-0.072-0.408c-0.048-0.132-0.121-0.248-0.221-0.347
					c-0.099-0.099-0.223-0.178-0.37-0.237c-0.147-0.059-0.32-0.089-0.518-0.089h-1.312v2.173H162.58z"/>
				<path style="fill:#000000;" d="M166.308,432.771h1.731l3.177,5.294h0.088l-0.088-1.522v-3.772h1.478v7.897h-1.566l-3.353-5.592
					h-0.088l0.088,1.522v4.07h-1.467V432.771z"/>
				<path style="fill:#000000;" d="M177.922,436.334h3.872c0.022,0.089,0.04,0.195,0.055,0.32c0.014,0.125,0.022,0.25,0.022,0.375
					c0,0.507-0.077,0.985-0.231,1.434c-0.154,0.449-0.397,0.849-0.728,1.202c-0.353,0.375-0.776,0.666-1.268,0.871
					c-0.493,0.206-1.055,0.309-1.688,0.309c-0.574,0-1.114-0.103-1.622-0.309c-0.507-0.206-0.948-0.492-1.323-0.86
					c-0.375-0.367-0.673-0.803-0.894-1.307c-0.221-0.504-0.331-1.053-0.331-1.649c0-0.595,0.11-1.145,0.331-1.649
					c0.221-0.504,0.518-0.939,0.894-1.307c0.375-0.367,0.816-0.654,1.323-0.86c0.507-0.206,1.048-0.309,1.622-0.309
					c0.64,0,1.211,0.11,1.715,0.331c0.504,0.221,0.935,0.526,1.296,0.915l-1.025,1.004c-0.258-0.272-0.544-0.48-0.861-0.623
					c-0.316-0.143-0.695-0.215-1.136-0.215c-0.361,0-0.703,0.065-1.026,0.193c-0.324,0.129-0.607,0.311-0.85,0.546
					c-0.242,0.235-0.436,0.52-0.579,0.855c-0.143,0.335-0.215,0.708-0.215,1.119c0,0.412,0.072,0.785,0.215,1.12
					c0.143,0.335,0.338,0.62,0.584,0.855c0.246,0.235,0.531,0.418,0.855,0.546c0.323,0.129,0.669,0.193,1.037,0.193
					c0.419,0,0.773-0.061,1.064-0.182c0.29-0.121,0.538-0.278,0.744-0.469c0.148-0.132,0.275-0.3,0.381-0.502
					c0.106-0.202,0.189-0.428,0.248-0.678h-2.482V436.334z"/>
			</g>
			<g>
				<path style="fill:#000000;" d="M224.019,431.299c-0.006-1.224-0.959-2.121-2.189-2.14c-0.924-0.014-0.832,0.12-0.834-0.867
					c-0.003-1.097-0.007-2.194,0.003-3.292c0.003-0.379-0.112-0.691-0.362-0.976c-2.342-2.668-4.678-5.342-7.019-8.011
					c-0.12-0.137-0.275-0.244-0.414-0.366c-6.214,0-12.427,0-18.641,0c-0.794,0.293-1.14,0.868-1.138,1.709
					c0.01,3.748,0.004,7.496,0.004,11.243c0,0.556-0.003,0.589-0.55,0.551c-1.497-0.102-2.516,0.986-2.497,2.492
					c0.044,3.476,0.013,6.953,0.014,10.429c0.001,1.58,0.867,2.443,2.45,2.449c0.582,0.002,0.582,0.002,0.582,0.6
					c0,2.219-0.001,4.438,0.001,6.657c0.001,1.192,0.58,1.771,1.768,1.771c8.013,0.001,16.027,0.001,24.04,0
					c1.168,0,1.755-0.583,1.757-1.745c0.002-2.256,0-4.512,0.001-6.768c0-0.512,0.002-0.511,0.52-0.515
					c0.271-0.002,0.541,0.008,0.809-0.058c0.997-0.246,1.69-1.044,1.694-2.069C224.034,438.696,224.036,434.997,224.019,431.299z
					 M195.568,417.162c5.337,0,10.674,0,16.01,0c0.548,0,0.554,0.007,0.554,0.561c0.001,2.243-0.001,4.486,0.001,6.73
					c0.001,0.811,0.249,1.059,1.06,1.059c1.91,0.001,3.821,0,5.731,0.001c0.458,0,0.479,0.021,0.481,0.483
					c0.003,0.887,0.002,1.775,0,2.662c-0.001,0.477-0.024,0.498-0.504,0.499c-3.895,0.001-7.79,0-11.684,0
					c-3.882,0-7.765,0-11.647,0c-0.55,0-0.552-0.001-0.552-0.561c-0.001-3.624-0.001-7.247,0-10.871
					C195.018,417.166,195.022,417.162,195.568,417.162z M218.854,451.579c-3.883,0.001-7.766,0-11.65,0c-3.871,0-7.742,0-11.613,0
					c-0.572,0-0.574-0.002-0.574-0.579c-0.001-1.997-0.001-3.994,0.001-5.991c0-0.464,0.023-0.486,0.478-0.487
					c7.803-0.001,15.607-0.001,23.41,0c0.478,0,0.499,0.02,0.499,0.503c0.002,1.997,0.001,3.994,0,5.991
					C219.406,451.574,219.401,451.579,218.854,451.579z"/>
			</g>
			<g>
				<path style="fill:#000000;" d="M205.111,432.771h1.699l2.967,7.897h-1.644l-0.651-1.886h-3.044l-0.651,1.886h-1.643
					L205.111,432.771z M206.997,437.415l-0.706-1.974l-0.287-0.96h-0.088l-0.287,0.96l-0.706,1.974H206.997z"/>
				<path style="fill:#000000;" d="M211.331,434.536c-0.125,0-0.245-0.024-0.359-0.072c-0.114-0.048-0.213-0.114-0.298-0.199
					c-0.084-0.084-0.151-0.182-0.198-0.292c-0.048-0.11-0.072-0.232-0.072-0.364s0.024-0.254,0.072-0.364
					c0.048-0.11,0.114-0.208,0.198-0.292c0.084-0.084,0.184-0.151,0.298-0.198c0.114-0.048,0.233-0.072,0.359-0.072
					c0.257,0,0.478,0.09,0.662,0.27c0.184,0.181,0.276,0.399,0.276,0.656s-0.092,0.476-0.276,0.656
					C211.809,434.446,211.589,434.536,211.331,434.536z M210.615,440.669v-5.404h1.445v5.404H210.615z"/>
			</g>
			<g>
				<path style="fill:#000000;" d="M261.044,431.299c-0.006-1.224-0.959-2.121-2.189-2.14c-0.924-0.014-0.832,0.12-0.834-0.867
					c-0.003-1.097-0.007-2.194,0.003-3.292c0.003-0.379-0.112-0.691-0.362-0.976c-2.342-2.668-4.678-5.342-7.019-8.011
					c-0.12-0.137-0.275-0.244-0.414-0.366c-6.214,0-12.427,0-18.641,0c-0.794,0.293-1.14,0.868-1.138,1.709
					c0.01,3.748,0.004,7.496,0.004,11.243c0,0.556-0.003,0.589-0.55,0.551c-1.497-0.102-2.516,0.986-2.497,2.492
					c0.044,3.476,0.013,6.953,0.014,10.429c0.001,1.58,0.867,2.443,2.45,2.449c0.582,0.002,0.582,0.002,0.582,0.6
					c0,2.219-0.001,4.438,0.001,6.657c0.001,1.192,0.58,1.771,1.768,1.771c8.013,0.001,16.027,0.001,24.04,0
					c1.168,0,1.755-0.583,1.757-1.745c0.002-2.256,0-4.512,0.001-6.768c0-0.512,0.002-0.511,0.52-0.515
					c0.271-0.002,0.541,0.008,0.809-0.058c0.996-0.246,1.69-1.044,1.694-2.069C261.059,438.696,261.061,434.997,261.044,431.299z
					 M232.593,417.162c5.337,0,10.674,0,16.01,0c0.548,0,0.554,0.007,0.554,0.561c0.001,2.243-0.001,4.486,0.001,6.73
					c0.001,0.811,0.249,1.059,1.06,1.059c1.91,0.001,3.821,0,5.731,0.001c0.458,0,0.479,0.021,0.481,0.483
					c0.003,0.887,0.002,1.775,0,2.662c-0.001,0.477-0.024,0.498-0.504,0.499c-3.895,0.001-7.79,0-11.684,0
					c-3.882,0-7.765,0-11.647,0c-0.55,0-0.552-0.001-0.552-0.561c-0.001-3.624-0.001-7.247,0-10.871
					C232.042,417.166,232.047,417.162,232.593,417.162z M255.878,451.579c-3.883,0.001-7.766,0-11.65,0c-3.871,0-7.742,0-11.613,0
					c-0.572,0-0.574-0.002-0.574-0.579c-0.001-1.997-0.001-3.994,0.001-5.991c0-0.464,0.023-0.486,0.478-0.487
					c7.803-0.001,15.607-0.001,23.41,0c0.478,0,0.499,0.02,0.499,0.503c0.002,1.997,0.001,3.994,0,5.991
					C256.431,451.574,256.426,451.579,255.878,451.579z"/>
			</g>
			<g>
				<path style="fill:#000000;" d="M236.361,440.845c-0.338,0-0.662-0.048-0.971-0.143c-0.309-0.095-0.592-0.239-0.849-0.43
					c-0.257-0.191-0.481-0.425-0.673-0.7c-0.191-0.276-0.342-0.597-0.452-0.965l1.401-0.551c0.103,0.397,0.283,0.726,0.54,0.987
					c0.257,0.261,0.596,0.392,1.015,0.392c0.154,0,0.303-0.02,0.447-0.061c0.143-0.04,0.272-0.099,0.386-0.176
					s0.204-0.175,0.27-0.292c0.066-0.118,0.099-0.254,0.099-0.408c0-0.147-0.026-0.279-0.077-0.397
					c-0.051-0.117-0.138-0.227-0.259-0.331c-0.121-0.103-0.28-0.202-0.475-0.298c-0.195-0.095-0.435-0.195-0.722-0.298l-0.485-0.176
					c-0.213-0.073-0.429-0.173-0.645-0.298c-0.217-0.125-0.413-0.276-0.59-0.452c-0.177-0.176-0.322-0.384-0.436-0.623
					c-0.114-0.239-0.171-0.509-0.171-0.81c0-0.309,0.06-0.597,0.182-0.866c0.121-0.268,0.294-0.503,0.518-0.706
					c0.224-0.202,0.492-0.36,0.805-0.474s0.66-0.171,1.042-0.171c0.397,0,0.74,0.053,1.031,0.16
					c0.291,0.107,0.537,0.243,0.739,0.408c0.202,0.165,0.366,0.348,0.491,0.546c0.125,0.199,0.217,0.386,0.276,0.563l-1.312,0.551
					c-0.074-0.221-0.208-0.419-0.402-0.596c-0.195-0.176-0.462-0.265-0.8-0.265c-0.324,0-0.592,0.075-0.805,0.226
					c-0.213,0.151-0.32,0.348-0.32,0.59c0,0.235,0.103,0.436,0.309,0.601c0.206,0.165,0.533,0.325,0.982,0.48l0.497,0.165
					c0.316,0.111,0.605,0.237,0.866,0.381c0.261,0.143,0.485,0.314,0.673,0.513c0.187,0.199,0.331,0.425,0.43,0.678
					c0.1,0.254,0.149,0.546,0.149,0.877c0,0.412-0.083,0.767-0.248,1.064c-0.165,0.298-0.377,0.542-0.634,0.734
					c-0.258,0.191-0.548,0.335-0.872,0.43C236.986,440.797,236.67,440.845,236.361,440.845z"/>
				<path style="fill:#000000;" d="M239.516,432.771h1.61l1.633,4.754l0.287,1.015h0.088l0.309-1.015l1.699-4.754h1.61l-2.879,7.897
					h-1.566L239.516,432.771z"/>
				<path style="fill:#000000;" d="M251.097,436.334h3.871c0.022,0.089,0.04,0.195,0.055,0.32c0.015,0.125,0.023,0.25,0.023,0.375
					c0,0.507-0.078,0.985-0.232,1.434c-0.154,0.449-0.397,0.849-0.728,1.202c-0.353,0.375-0.775,0.666-1.268,0.871
					c-0.493,0.206-1.055,0.309-1.688,0.309c-0.574,0-1.114-0.103-1.621-0.309c-0.507-0.206-0.949-0.492-1.324-0.86
					c-0.375-0.367-0.673-0.803-0.894-1.307c-0.22-0.504-0.331-1.053-0.331-1.649c0-0.595,0.11-1.145,0.331-1.649
					c0.221-0.504,0.518-0.939,0.894-1.307c0.375-0.367,0.816-0.654,1.324-0.86c0.507-0.206,1.047-0.309,1.621-0.309
					c0.64,0,1.211,0.11,1.715,0.331c0.504,0.221,0.936,0.526,1.296,0.915l-1.026,1.004c-0.257-0.272-0.544-0.48-0.861-0.623
					c-0.316-0.143-0.694-0.215-1.136-0.215c-0.36,0-0.702,0.065-1.026,0.193c-0.323,0.129-0.607,0.311-0.849,0.546
					c-0.243,0.235-0.436,0.52-0.579,0.855c-0.143,0.335-0.215,0.708-0.215,1.119c0,0.412,0.072,0.785,0.215,1.12
					c0.143,0.335,0.338,0.62,0.585,0.855c0.246,0.235,0.531,0.418,0.854,0.546c0.324,0.129,0.669,0.193,1.037,0.193
					c0.419,0,0.774-0.061,1.064-0.182c0.29-0.121,0.539-0.278,0.745-0.469c0.147-0.132,0.274-0.3,0.38-0.502
					c0.107-0.202,0.189-0.428,0.248-0.678h-2.482V436.334z"/>
			</g>
			<g>
				<path style="fill:#000000;" d="M297.3,431.299c-0.006-1.224-0.959-2.121-2.189-2.14c-0.924-0.014-0.832,0.12-0.834-0.867
					c-0.003-1.097-0.007-2.194,0.003-3.292c0.003-0.379-0.112-0.691-0.362-0.976c-2.342-2.668-4.678-5.342-7.019-8.011
					c-0.12-0.137-0.275-0.244-0.414-0.366c-6.214,0-12.427,0-18.641,0c-0.794,0.293-1.14,0.868-1.138,1.709
					c0.01,3.748,0.004,7.496,0.004,11.243c0,0.556-0.003,0.589-0.55,0.551c-1.497-0.102-2.516,0.986-2.497,2.492
					c0.044,3.476,0.013,6.953,0.014,10.429c0.001,1.58,0.867,2.443,2.45,2.449c0.582,0.002,0.582,0.002,0.582,0.6
					c0,2.219-0.001,4.438,0.001,6.657c0.001,1.192,0.58,1.771,1.768,1.771c8.013,0.001,16.027,0.001,24.04,0
					c1.168,0,1.755-0.583,1.757-1.745c0.002-2.256,0-4.512,0.001-6.768c0-0.512,0.002-0.511,0.52-0.515
					c0.271-0.002,0.541,0.008,0.809-0.058c0.996-0.246,1.69-1.044,1.694-2.069C297.315,438.696,297.318,434.997,297.3,431.299z
					 M268.85,417.162c5.337,0,10.674,0,16.01,0c0.548,0,0.554,0.007,0.554,0.561c0.001,2.243-0.001,4.486,0.001,6.73
					c0.001,0.811,0.249,1.059,1.06,1.059c1.91,0.001,3.821,0,5.731,0.001c0.458,0,0.479,0.021,0.481,0.483
					c0.003,0.887,0.002,1.775,0,2.662c-0.001,0.477-0.024,0.498-0.504,0.499c-3.895,0.001-7.79,0-11.684,0
					c-3.882,0-7.765,0-11.647,0c-0.55,0-0.552-0.001-0.552-0.561c-0.001-3.624-0.001-7.247,0-10.871
					C268.299,417.166,268.303,417.162,268.85,417.162z M292.135,451.579c-3.883,0.001-7.766,0-11.65,0c-3.871,0-7.742,0-11.613,0
					c-0.572,0-0.574-0.002-0.574-0.579c-0.001-1.997-0.001-3.994,0.001-5.991c0-0.464,0.023-0.486,0.478-0.487
					c7.803-0.001,15.607-0.001,23.41,0c0.478,0,0.499,0.02,0.499,0.503c0.001,1.997,0.001,3.994,0,5.991
					C292.687,451.574,292.682,451.579,292.135,451.579z"/>
			</g>
			<g>
				<path style="fill:#000000;" d="M272.966,434.183v1.831h3.165v1.412h-3.165v1.831h3.518v1.412h-5.007v-7.897h5.007v1.412H272.966
					z"/>
				<path style="fill:#000000;" d="M277.852,440.669v-7.897h2.779c0.375,0,0.726,0.061,1.053,0.182
					c0.327,0.121,0.612,0.292,0.855,0.513c0.243,0.221,0.434,0.483,0.574,0.789c0.14,0.305,0.209,0.642,0.209,1.009
					c0,0.375-0.07,0.715-0.209,1.02c-0.14,0.305-0.331,0.568-0.574,0.789c-0.243,0.221-0.528,0.392-0.855,0.513
					c-0.327,0.121-0.678,0.182-1.053,0.182h-1.29v2.901H277.852z M280.653,436.356c0.389,0,0.684-0.111,0.882-0.331
					c0.199-0.22,0.298-0.474,0.298-0.761c0-0.14-0.024-0.276-0.072-0.408c-0.048-0.132-0.121-0.248-0.221-0.347
					c-0.099-0.099-0.222-0.178-0.37-0.237c-0.147-0.059-0.32-0.089-0.518-0.089h-1.312v2.173H280.653z"/>
				<path style="fill:#000000;" d="M286.797,440.845c-0.338,0-0.662-0.048-0.971-0.143c-0.309-0.095-0.592-0.239-0.849-0.43
					c-0.257-0.191-0.482-0.425-0.673-0.7c-0.191-0.276-0.342-0.597-0.452-0.965l1.401-0.551c0.103,0.397,0.283,0.726,0.541,0.987
					c0.257,0.261,0.595,0.392,1.015,0.392c0.154,0,0.303-0.02,0.447-0.061c0.143-0.04,0.272-0.099,0.386-0.176
					c0.114-0.077,0.204-0.175,0.27-0.292c0.066-0.118,0.1-0.254,0.1-0.408c0-0.147-0.026-0.279-0.077-0.397
					c-0.051-0.117-0.138-0.227-0.259-0.331c-0.121-0.103-0.279-0.202-0.474-0.298c-0.195-0.095-0.436-0.195-0.723-0.298
					l-0.485-0.176c-0.213-0.073-0.428-0.173-0.645-0.298c-0.217-0.125-0.414-0.276-0.59-0.452c-0.176-0.176-0.322-0.384-0.436-0.623
					c-0.114-0.239-0.171-0.509-0.171-0.81c0-0.309,0.061-0.597,0.182-0.866c0.121-0.268,0.294-0.503,0.518-0.706
					c0.224-0.202,0.493-0.36,0.805-0.474c0.312-0.114,0.66-0.171,1.042-0.171c0.397,0,0.741,0.053,1.031,0.16
					c0.29,0.107,0.537,0.243,0.739,0.408c0.202,0.165,0.365,0.348,0.491,0.546c0.125,0.199,0.217,0.386,0.276,0.563l-1.312,0.551
					c-0.074-0.221-0.208-0.419-0.403-0.596c-0.195-0.176-0.462-0.265-0.799-0.265c-0.324,0-0.592,0.075-0.805,0.226
					c-0.213,0.151-0.32,0.348-0.32,0.59c0,0.235,0.103,0.436,0.309,0.601c0.206,0.165,0.533,0.325,0.982,0.48l0.496,0.165
					c0.316,0.111,0.605,0.237,0.866,0.381c0.261,0.143,0.485,0.314,0.673,0.513c0.187,0.199,0.331,0.425,0.43,0.678
					c0.099,0.254,0.149,0.546,0.149,0.877c0,0.412-0.083,0.767-0.248,1.064c-0.165,0.298-0.377,0.542-0.634,0.734
					c-0.258,0.191-0.548,0.335-0.872,0.43C287.422,440.797,287.105,440.845,286.797,440.845z"/>
			</g>
			<g>
				<path style="fill:#000000;" d="M321.394,439.168l4.004-4.985h-3.827v-1.412h5.559v1.5l-3.96,4.985h4.004v1.412h-5.779V439.168z"
					/>
				<path style="fill:#000000;" d="M328.409,432.771h1.489v7.897h-1.489V432.771z"/>
				<path style="fill:#000000;" d="M331.486,440.669v-7.897h2.779c0.375,0,0.726,0.061,1.053,0.182
					c0.327,0.121,0.612,0.292,0.855,0.513s0.434,0.483,0.574,0.789c0.14,0.305,0.209,0.642,0.209,1.009
					c0,0.375-0.07,0.715-0.209,1.02c-0.14,0.305-0.331,0.568-0.574,0.789c-0.243,0.221-0.528,0.392-0.855,0.513
					c-0.327,0.121-0.678,0.182-1.053,0.182h-1.29v2.901H331.486z M334.288,436.356c0.389,0,0.684-0.111,0.882-0.331
					c0.199-0.22,0.298-0.474,0.298-0.761c0-0.14-0.024-0.276-0.072-0.408c-0.048-0.132-0.121-0.248-0.221-0.347
					c-0.099-0.099-0.222-0.178-0.37-0.237c-0.147-0.059-0.32-0.089-0.518-0.089h-1.312v2.173H334.288z"/>
			</g>
		</g>
		<g style="opacity:0.61;">
			<path style="fill:#000000;" d="M300.133,433.27h9.067v2.242h-9.067V433.27z M300.133,437.136h9.067v2.243h-9.067V437.136z"/>
		</g>
	</g>
	<g style="opacity:0.61;">
		<path style="fill:#000000;" d="M156.756,478.878h1.607c1.263,0,2.114,0.812,2.114,1.974c0,1.161-0.851,1.973-2.114,1.973h-1.607
			V478.878z M158.34,482.464c1.049,0,1.725-0.665,1.725-1.612c0-0.947-0.677-1.613-1.725-1.613h-1.167v3.225H158.34z"/>
		<path style="fill:#000000;" d="M165.139,480.851c0-1.15,0.879-2.007,2.075-2.007c1.184,0,2.069,0.851,2.069,2.007
			c0,1.156-0.885,2.007-2.069,2.007C166.019,482.858,165.139,482.002,165.139,480.851z M168.866,480.851
			c0-0.942-0.705-1.635-1.652-1.635c-0.953,0-1.663,0.693-1.663,1.635c0,0.941,0.71,1.635,1.663,1.635
			C168.162,482.486,168.866,481.793,168.866,480.851z"/>
		<path style="fill:#000000;" d="M179.596,478.878l-1.331,3.947h-0.44l-1.156-3.366l-1.161,3.366h-0.434l-1.331-3.947h0.429
			l1.139,3.394l1.178-3.394h0.389l1.161,3.411l1.156-3.411H179.596z"/>
		<path style="fill:#000000;" d="M187.731,478.878v3.947h-0.344l-2.537-3.202v3.202h-0.417v-3.947h0.344l2.543,3.203v-3.203H187.731
			z"/>
		<path style="fill:#000000;" d="M193.093,478.878h0.417v3.586h2.21v0.361h-2.627V478.878z"/>
		<path style="fill:#000000;" d="M200.061,480.851c0-1.15,0.879-2.007,2.075-2.007c1.184,0,2.069,0.851,2.069,2.007
			c0,1.156-0.885,2.007-2.069,2.007C200.941,482.858,200.061,482.002,200.061,480.851z M203.788,480.851
			c0-0.942-0.705-1.635-1.652-1.635c-0.953,0-1.663,0.693-1.663,1.635c0,0.941,0.71,1.635,1.663,1.635
			C203.083,482.486,203.788,481.793,203.788,480.851z"/>
		<path style="fill:#000000;" d="M211.636,481.77h-2.199l-0.474,1.054h-0.434l1.804-3.947h0.412l1.804,3.947h-0.44L211.636,481.77z
			 M211.484,481.432l-0.947-2.12l-0.947,2.12H211.484z"/>
		<path style="fill:#000000;" d="M217.28,478.878h1.607c1.263,0,2.114,0.812,2.114,1.974c0,1.161-0.851,1.973-2.114,1.973h-1.607
			V478.878z M218.864,482.464c1.049,0,1.725-0.665,1.725-1.612c0-0.947-0.677-1.613-1.725-1.613h-1.167v3.225H218.864z"/>
		<path style="fill:#000000;" d="M234.041,481.77h-2.199l-0.474,1.054h-0.434l1.804-3.947h0.412l1.804,3.947h-0.44L234.041,481.77z
			 M233.889,481.432l-0.947-2.12l-0.947,2.12H233.889z"/>
		<path style="fill:#000000;" d="M239.685,478.878h0.417v3.586h2.21v0.361h-2.627V478.878z"/>
		<path style="fill:#000000;" d="M247.082,478.878h0.417v3.586h2.21v0.361h-2.627V478.878z"/>
		<path style="fill:#000000;" d="M260.449,479.239v1.551h2.041v0.361h-2.041v1.675h-0.417v-3.947h2.706v0.361H260.449z"/>
		<path style="fill:#000000;" d="M267.678,478.878h0.417v3.947h-0.417V478.878z"/>
		<path style="fill:#000000;" d="M273.456,478.878h0.417v3.586h2.21v0.361h-2.627V478.878z"/>
		<path style="fill:#000000;" d="M283.644,482.464v0.361h-2.791v-3.947h2.706v0.361h-2.289v1.404h2.041v0.355h-2.041v1.466H283.644z
			"/>
		<path style="fill:#000000;" d="M294.672,479.239v1.551h2.041v0.361h-2.041v1.675h-0.417v-3.947h2.706v0.361H294.672z"/>
		<path style="fill:#000000;" d="M301.5,480.851c0-1.15,0.879-2.007,2.075-2.007c1.184,0,2.069,0.851,2.069,2.007
			c0,1.156-0.885,2.007-2.069,2.007C302.379,482.858,301.5,482.002,301.5,480.851z M305.226,480.851
			c0-0.942-0.705-1.635-1.652-1.635c-0.953,0-1.663,0.693-1.663,1.635c0,0.941,0.71,1.635,1.663,1.635
			C304.522,482.486,305.226,481.793,305.226,480.851z"/>
		<path style="fill:#000000;" d="M313.351,482.825l-0.902-1.269c-0.102,0.011-0.203,0.017-0.316,0.017h-1.06v1.252h-0.417v-3.947
			h1.477c1.004,0,1.613,0.507,1.613,1.353c0,0.62-0.327,1.054-0.902,1.24l0.964,1.353H313.351z M313.328,480.231
			c0-0.632-0.417-0.992-1.207-0.992h-1.048v1.979h1.048C312.911,481.218,313.328,480.851,313.328,480.231z"/>
		<path style="fill:#000000;" d="M322.907,478.878v3.947h-0.4v-3.158l-1.551,2.656h-0.197l-1.551-2.639v3.14h-0.4v-3.947h0.344
			l1.714,2.926l1.697-2.926H322.907z"/>
		<path style="fill:#000000;" d="M330.744,481.77h-2.199l-0.473,1.054h-0.434l1.804-3.947h0.411l1.804,3.947h-0.44L330.744,481.77z
			 M330.592,481.432l-0.947-2.12l-0.947,2.12H330.592z"/>
		<path style="fill:#000000;" d="M336.957,479.239h-1.387v-0.361h3.192v0.361h-1.387v3.586h-0.417V479.239z"/>
		<path style="fill:#000000;" d="M343.063,482.346l0.164-0.321c0.282,0.276,0.784,0.479,1.302,0.479c0.739,0,1.06-0.31,1.06-0.699
			c0-1.083-2.43-0.417-2.43-1.877c0-0.581,0.451-1.083,1.455-1.083c0.446,0,0.908,0.13,1.224,0.35l-0.141,0.333
			c-0.338-0.22-0.733-0.327-1.083-0.327c-0.722,0-1.043,0.321-1.043,0.716c0,1.083,2.43,0.429,2.43,1.866
			c0,0.581-0.462,1.077-1.472,1.077C343.937,482.858,343.356,482.65,343.063,482.346z"/>
	</g>
</g>
<g>
</g>
<g>
	<path style="fill-rule:evenodd;clip-rule:evenodd;fill:#000000;" d="M27,238.927c2.413-3.428,4.888-6.742,9.607-7.076
		c6.828-0.485,12.327,3.175,13.809,10.171c5.445,25.703,21.827,41.747,45.088,51.888c0.67,0.292,1.324,0.621,2.051,0.963
		c-0.727,1.122-1.564,0.787-2.214,0.615c-17.374-4.586-34.226-10.395-48.759-21.429c-8.389-6.37-15.013-14.122-18.475-24.267
		c-0.197-0.579-0.283-1.311-1.107-1.437C27,245.212,27,242.07,27,238.927z"/>
	<path style="fill-rule:evenodd;clip-rule:evenodd;fill:#000000;" d="M310.644,343.427c1.639-4.952,2.316-10.12,3.054-15.236
		c0.395-2.732,1.477-3.32,3.782-2.649c0.482,0.14,0.867,0.499,1.419,0.23c2.348-1.141,4.725-1.335,6.217,1.124
		c1.532,2.527,0.959,5.255-0.35,7.797c-1.152,2.241-3.067,4.01-5.478,3.86c-4.066-0.253-3.999,2.151-3.93,4.873
		C313.788,343.427,312.215,343.427,310.644,343.427z M316.931,333.031c0.027,1.167-0.368,2.634,1.262,2.422
		c2.302-0.3,3.058-2.243,3.396-4.235c0.189-1.116,0.299-2.783-1.347-2.677C317.508,328.717,317.579,331.306,316.931,333.031z"/>
	<path style="fill-rule:evenodd;clip-rule:evenodd;fill:#000000;" d="M223.429,343.427c0.17-1.66,1.145-3.206,0.632-5.334
		c-3.107,1.196-5.865,0.92-6.836-2.823c-1.019-3.927,1.491-8.497,5.274-9.76c1.094-0.364,2.29-0.571,3.443-0.588
		c4.703-0.065,5.072,0.457,4.1,5.165c-0.917,4.442-1.791,8.893-2.684,13.34C226.049,343.427,224.739,343.427,223.429,343.427z
		 M225.903,330.297c0.156-0.862,0.661-2.088-0.834-2.002c-2.577,0.149-3.34,2.216-3.761,4.323c-0.241,1.205,0.141,2.832,1.541,2.564
		C225.284,334.716,225.675,332.434,225.903,330.297z"/>
	<path style="fill-rule:evenodd;clip-rule:evenodd;fill:#000000;" d="M92.685,260.453c-2.241-16.873,0.372-33.029,7.811-48.258
		c14.542-29.769,39.114-46.463,70.896-53.415c11.206-2.452,22.477-3.38,33.716-0.04c1.369,0.406,2.743,0.852,4.04,1.441
		c4.313,1.961,7.365,5.066,7.847,9.956c0.498,5.045-2.884,7.974-6.602,10.309c-6.06,3.808-13.066,4.32-19.955,5.024
		c-23.868,2.438-46.468,8.666-66.404,22.563c-14.693,10.241-25.856,23.187-29.818,41.214
		C93.41,252.919,93.181,256.715,92.685,260.453z"/>
	<path style="fill-rule:evenodd;clip-rule:evenodd;fill:#000000;" d="M210.093,239.392c3.617,0.556,6.803,1.256,9.611,3.043
		c3.542,2.253,4.416,5.354,2.477,9.084c-2.034,3.91-5.55,6.137-9.419,7.894c-8.997,4.088-18.608,5.037-28.292,5.136
		c-17.004,0.17-34.013-0.054-51.018,0.129c-3.69,0.041-3.681-1.061-2.551-3.92c2.152-5.445,4.278-10.927,5.925-16.538
		c3.574-12.165,11.659-19.719,23.654-22.692c18.746-4.647,37.746-4.2,56.74-1.453c1.137,0.165,2.265,0.615,3.318,1.105
		c5.266,2.449,6.084,7.118,1.97,11.33c-2.33,2.386-5.332,3.661-8.363,4.912C212.896,237.937,211.303,237.765,210.093,239.392z
		 M156.14,256.048c7.738,0,15.456,0.228,23.152-0.083c4.913-0.198,9.961,0.083,14.697-1.761c2.773-1.078,5.676-2.558,5.12-5.983
		c-0.491-3.02-3.665-2.758-6.052-3.08c-7.547-1.018-15.138-0.468-22.709-0.528c-11.08-0.086-11.081-0.023-14.37,10.525
		C155.944,255.246,156.017,255.387,156.14,256.048z M162.886,236.392c9.111,0,17.842,0.07,26.572-0.051
		c2.051-0.029,4.114-0.618,6.133-1.105c2.569-0.619,5.062-2.055,4.851-4.82c-0.226-2.95-3.419-3.032-5.607-3.123
		c-5.999-0.246-12.047-0.473-18.014,0.024C170.96,227.804,165.649,229.929,162.886,236.392z"/>
	<path style="fill-rule:evenodd;clip-rule:evenodd;fill:#000000;" d="M93.693,285.388c-14.654-10.101-24.29-23.925-29.592-40.741
		c-6.02-19.092-6.633-38.252,0.621-57.237c2.551-6.678,6.356-12.579,11.704-17.414c3.104-2.805,6.737-4.546,10.885-4.891
		c8.682-0.724,13.833,5.576,11.572,13.999c-0.992,3.692-2.884,6.993-4.641,10.342c-8.847,16.867-14.775,34.636-15.118,53.795
		c-0.278,15.646,3.941,29.972,15.245,41.529C94.145,284.976,93.919,285.182,93.693,285.388z"/>
	<path style="fill-rule:evenodd;clip-rule:evenodd;fill:#000000;" d="M324.523,254.077c0.038,0.738,0.069,0.872,0.049,0.999
		c-1.101,7.371-5.87,9.328-12.746,9.93c-13.59,1.191-27.083,1.921-40.537-0.951c-2.946-0.629-5.757-1.684-8.334-3.263
		c-5.362-3.284-6.795-7.97-4.312-13.784c2.703-6.327,7.899-10.087,13.912-12.51c15.848-6.389,32.246-7.054,48.8-3.377
		c4.429,0.985,9.34,2.69,9.591,8.285c0.253,5.582-4.427,7.679-8.781,9.161c-13.005,4.423-26.293,5.01-39.766,2.328
		c-0.951-0.19-2.24-1.624-3.024-0.183c-0.68,1.248,0.205,2.532,1.2,3.471c3.068,2.895,7.005,3.271,10.91,3.601
		C302.649,258.725,313.554,257.062,324.523,254.077z M298.711,236.499c-0.653,0-1.306-0.003-1.959,0.001
		c-4.384,0.03-8.542,0.966-12.276,3.325c-1.098,0.693-2.178,1.772-1.971,3.158c0.206,1.377,1.652,1.48,2.804,1.613
		c3.747,0.431,7.522,1.274,11.243,1.085c3.552-0.18,7.355,0.205,10.644-1.901c1.285-0.823,2.4-1.836,2.33-3.362
		c-0.082-1.763-1.482-2.575-3.068-3.11C303.926,236.454,301.323,236.477,298.711,236.499z"/>
	<path style="fill-rule:evenodd;clip-rule:evenodd;fill:#000000;" d="M426.489,266.26c-9.151-0.448-18.296-0.517-27.341-2.159
		c-2.352-0.427-2.937-1.078-2.061-3.461c2.473-6.727,2.357-6.715,9.133-4.973c11.381,2.925,22.907,3.768,34.58,2.175
		c0.646-0.088,1.347-0.071,1.918-0.332c1.129-0.515,2.933-0.532,2.947-2.142c0.014-1.772-1.853-1.721-2.989-1.833
		c-5.457-0.538-10.929-0.956-16.406-1.271c-5.101-0.294-10.174-0.74-15.037-2.385c-3.137-1.062-6.408-2.389-6.745-6.256
		c-0.324-3.697,2.221-6.059,5.066-7.821c6.985-4.325,14.946-5.38,22.872-6.02c12.642-1.02,25.278-0.965,37.875,1.142
		c3.268,0.547,3.022,1.66,2.091,4.025c-2.168,5.506-2.078,5.487-7.95,4.148c-10.41-2.377-20.935-3.016-31.53-1.606
		c-2.078,0.277-5.477,0.185-5.428,2.686c0.041,2.074,3.37,1.65,5.345,1.856c8.184,0.85,16.382,1.581,24.57,2.411
		c2.747,0.28,5.383,1.055,7.796,2.43c3.909,2.229,4.576,5.412,1.954,9.157c-2.13,3.046-5.37,4.468-8.644,5.802
		C448.203,266.03,437.283,265.719,426.489,266.26z"/>
	<path style="fill-rule:evenodd;clip-rule:evenodd;fill:#000000;" d="M354.919,266.264c-9.383-0.432-18.528-0.522-27.563-2.176
		c-2.11-0.387-2.882-0.826-1.981-3.261c2.552-6.906,2.409-6.933,9.303-5.14c11.25,2.925,22.648,3.698,34.18,2.192
		c2.023-0.264,5.128-0.346,5.026-2.607c-0.1-2.24-3.304-1.947-5.245-2.124c-7.282-0.661-14.584-1.08-21.872-1.66
		c-3.003-0.24-5.91-0.985-8.682-2.191c-6.442-2.802-7.193-7.806-1.787-12.355c3.272-2.753,7.238-4.156,11.333-5.034
		c17.183-3.682,34.441-3.546,51.746-0.846c2.275,0.355,2.291,1.218,1.613,3.106c-2.258,6.284-2.177,6.279-8.524,4.854
		c-10.548-2.368-21.196-2.943-31.909-1.43c-1.816,0.257-4.829,0.25-4.793,2.419c0.038,2.268,3.01,1.765,4.786,1.956
		c8.178,0.878,16.373,1.624,24.561,2.391c2.23,0.208,4.361,0.768,6.424,1.591c6.593,2.626,7.415,7.539,1.972,12.171
		c-3.143,2.674-6.977,4.004-10.871,5.162C373.492,266.002,364.046,265.773,354.919,266.264z"/>
	<path style="fill-rule:evenodd;clip-rule:evenodd;fill:#000000;" d="M224.743,264.604c3.624-9.859,7.053-19.092,10.383-28.36
		c0.492-1.369,1.25-1.797,2.582-1.79c5.747,0.029,11.494,0.043,17.242-0.008c1.724-0.016,2.337,0.29,1.611,2.211
		c-3.263,8.629-6.408,17.303-9.537,25.982c-0.52,1.441-1.301,2.014-2.86,1.996C237.901,264.561,231.637,264.604,224.743,264.604z"/>
	<path style="fill-rule:evenodd;clip-rule:evenodd;fill:#000000;" d="M247.418,230.311c-2.618,0.151-5.962-0.269-9.16-1.598
		c-1.373-0.57-2.718-1.375-2.892-2.922c-0.178-1.59,0.988-2.668,2.333-3.325c7.9-3.852,16.071-4.436,24.301-1.373
		c3.395,1.264,3.44,4.263,0.211,6.128C257.917,229.703,253.129,230.331,247.418,230.311z"/>
	<path style="fill-rule:evenodd;clip-rule:evenodd;fill:#000000;" d="M124.638,298.636c1.584-6.832,3.084-13.391,4.644-19.934
		c0.197-0.827,0.358-2.014,1.543-1.966c3.891,0.157,7.867-0.749,11.663,0.62c3.842,1.386,4.722,5.524,1.79,8.415
		c-1.018,1.004-2.376,1.429-0.254,2.849c1.626,1.087,1.905,3.003,1.093,4.94c-1.292,3.079-3.73,4.815-6.895,5.009
		C133.807,298.838,129.364,298.636,124.638,298.636z M132.44,296.2c2.052-0.246,4.16-0.291,6.149-0.798
		c1.847-0.471,3.243-1.735,3.1-3.92c-0.134-2.054-1.715-2.379-3.334-2.512c-1.935-0.157-3.892-0.459-5.811-0.322
		c-3.995,0.286-2.627,3.986-3.19,6.073C128.745,296.978,131.335,295.642,132.44,296.2z M131.447,285.848
		c3.119,0.356,6.092,0.516,8.957-0.638c1.459-0.589,2.337-1.7,2.079-3.358c-0.24-1.541-1.382-1.95-2.799-2.187
		C133.549,278.633,132.86,279.082,131.447,285.848z"/>
	<path style="fill-rule:evenodd;clip-rule:evenodd;fill:#000000;" d="M394.33,286.052c3.683,0,7.344-0.085,10.996,0.063
		c0.848,0.035,2.693-1.074,2.547,1.132c-0.114,1.707-1.613,1.369-2.743,1.378c-3.141,0.022-6.282-0.038-9.421,0.026
		c-2.001,0.042-4.678,5.271-3.552,6.893c0.519,0.747,1.421,0.519,2.181,0.524c3.533,0.019,7.066-0.021,10.599,0.035
		c0.756,0.011,2.041-0.495,1.904,1.099c-0.091,1.07-0.703,1.494-1.851,1.482c-5.234-0.059-10.468-0.081-15.701,0.002
		c-1.899,0.031-1.78-0.94-1.465-2.218c1.461-5.95,2.971-11.888,4.334-17.86c0.321-1.4,0.827-1.968,2.295-1.945
		c4.711,0.072,9.421,0.015,14.131,0.038c0.832,0.004,1.937-0.309,1.842,1.22c-0.074,1.181-0.789,1.588-1.81,1.603
		c-2.355,0.034-4.71,0.021-7.066,0.023C395.275,279.548,395.275,279.547,394.33,286.052z"/>
	<path style="fill-rule:evenodd;clip-rule:evenodd;fill:#000000;" d="M462.565,276.473c3.331,0.022,6.573,0.291,8.457,3.659
		c0.561,1.004,1.469,2.162-0.066,2.954c-1.238,0.64-2.28,0.492-3.124-1.135c-1.781-3.433-4.891-3.323-8.097-2.37
		c-1.177,0.35-2.173,0.942-2.255,2.361c-0.081,1.394,0.742,2.134,1.913,2.63c2.394,1.015,4.85,1.909,7.161,3.09
		c4.577,2.34,4.868,7.28,0.415,9.784c-4.349,2.444-9.001,2.263-13.449-0.004c-0.859-0.44-1.739-1.385-2.016-2.279
		c-0.359-1.162-1.795-2.721,0.162-3.723c2.05-1.049,2.432,0.212,2.994,2.029c0.688,2.224,2.957,2.694,5.135,2.795
		c2.284,0.108,4.527-0.092,6.004-2.092c1.083-1.465,0.425-2.826-1.013-3.588c-1.829-0.969-3.787-1.699-5.695-2.517
		c-2.849-1.223-5.785-2.643-5.293-6.334c0.527-3.953,3.727-4.97,7.202-5.255C461.518,276.436,462.043,276.473,462.565,276.473z"/>
	<path style="fill-rule:evenodd;clip-rule:evenodd;fill:#000000;" d="M431.478,276.491c3.369-0.021,6.593,0.389,8.401,3.773
		c0.521,0.972,1.333,2.196-0.382,2.903c-1.234,0.508-2.154,0.387-2.687-1.18c-0.736-2.159-2.766-2.696-4.738-2.891
		c-2.257-0.223-4.901-0.093-5.694,2.336c-0.933,2.857,1.991,3.134,3.77,3.968c1.884,0.882,3.912,1.492,5.714,2.51
		c3.884,2.195,4.011,6.653,0.377,9.275c-3.418,2.465-10.762,2.534-14.144,0.133c-1.217-0.864-2.1-1.942-2.276-3.489
		c-0.131-1.151-0.555-2.295,1.288-2.637c1.436-0.266,1.574,0.305,2.041,1.468c1.484,3.699,7.563,5.027,10.596,2.387
		c1.91-1.662,1.801-3.46-0.467-4.698c-1.82-0.993-3.809-1.68-5.731-2.482c-2.927-1.22-5.553-2.819-4.793-6.546
		c0.717-3.519,3.575-4.531,6.766-4.822C430.169,276.441,430.826,276.491,431.478,276.491z"/>
	<path style="fill-rule:evenodd;clip-rule:evenodd;fill:#000000;" d="M310.644,330.388c-0.283,1.594-0.724,3.896-1.097,6.211
		c-0.276,1.716-1.381,1.985-2.844,1.832c-2.044-0.214-1.238-1.49-1.022-2.584c0.328-1.665,0.648-3.331,0.914-5.005
		c0.14-0.889,0.362-1.954-0.854-2.265c-1.085-0.277-1.788,0.533-2.068,1.395c-0.643,1.975-1.383,3.985-1.561,6.025
		c-0.192,2.187-1.272,2.749-3.065,2.402c-2.176-0.42-0.861-2.103-0.842-3.167c0.025-1.412,0.52-2.812,0.735-4.228
		c0.13-0.856,0.509-1.975-0.611-2.371c-1.32-0.466-1.969,0.737-2.279,1.634c-0.629,1.835-1.049,3.756-1.387,5.672
		c-0.319,1.803-1.026,2.876-3.069,2.499c-2.332-0.43-1.035-1.893-0.872-3.003c0.187-1.288,0.186-2.704,0.754-3.814
		c1.094-2.132-1.257-6.821,3.589-6.057c2.566,0.405,5.326-2.298,7.605,0.577c1.013,1.279,1.49-0.245,2.161-0.521
		C308.804,323.989,310.827,325.365,310.644,330.388z"/>
	<path style="fill-rule:evenodd;clip-rule:evenodd;fill:#000000;" d="M295.452,284.063c0.492-2.077,0.951-3.977,1.388-5.881
		c0.352-1.529,1.464-1.714,2.703-1.441c1.41,0.311,0.826,1.378,0.631,2.194c-1.384,5.826-2.867,11.63-4.166,17.474
		c-0.479,2.159-1.586,3.151-3.35,1.757c-1.34-1.058-1.739,0.181-2.468,0.423c-4.941,1.644-8.618-0.956-8.64-6.201
		C281.519,284.5,288.008,280.419,295.452,284.063z M284.768,292.231c0.007,2.47,1.454,4.177,3.598,4.244
		c3.007,0.095,5.849-3.626,5.834-7.52c-0.01-2.542-1.155-3.889-3.73-3.902C287.537,285.036,284.755,288.552,284.768,292.231z"/>
	<path style="fill-rule:evenodd;clip-rule:evenodd;fill:#000000;" d="M157.688,287.423c2.631-5.114,9.51-6.795,13.558-3.7
		c1.142,0.873,1.72,2.034,1.607,3.389c-0.298,3.614-2.244,6.938-1.832,10.712c0.129,1.185-1.363,1.049-1.71,0.784
		c-2.298-1.75-4.314-0.05-6.431,0.332c-3.541,0.638-6.575-1.056-7.003-3.911c-0.418-2.786,1.627-5.159,5.181-5.704
		c2.059-0.315,4.182-0.191,6.255-0.444c0.79-0.097,1.879-0.197,1.929-1.51c0.05-1.278-0.541-1.93-1.748-2.172
		c-1.985-0.398-4.131-0.6-5.431,1.116C160.805,287.977,159.472,287.67,157.688,287.423z M168.44,291.086
		c-2.262,0.195-4.197,0.28-6.105,0.55c-1.629,0.23-3.245,0.904-2.942,2.892c0.303,1.996,2.09,2.124,3.705,1.966
		C166.076,296.201,167.692,294.388,168.44,291.086z"/>
	<path style="fill-rule:evenodd;clip-rule:evenodd;fill:#000000;" d="M122.117,338.435c-0.783,0-1.572-0.057-2.349,0.011
		c-2.253,0.199-3.369-0.153-2.607-2.971c1.085-4.013,1.849-8.145,2.327-12.276c0.289-2.49,1.378-2.965,3.527-2.785
		c1.815,0.153,3.655-0.022,5.479,0.056c0.879,0.038,2.327-0.579,2.147,1.269c-0.12,1.222-0.402,2.344-2.062,2.25
		c-1.17-0.067-2.349-0.002-3.523,0.012c-1.594,0.018-1.938,1.172-1.945,2.388c-0.007,1.401,1.193,1.041,2.023,1.112
		c0.648,0.056,1.308-0.025,1.956,0.03c0.823,0.069,2.075-0.29,1.815,1.236c-0.164,0.956-0.219,2.168-1.75,2.11
		c-1.173-0.044-2.351,0.05-3.523-0.009c-2.147-0.106-1.626,1.654-1.869,2.746c-0.342,1.539,1.055,0.923,1.744,1.261
		c1.518,0.746,4.577-1.753,4.597,1.427c0.022,3.575-3.338,1.625-5.206,2.124C122.654,338.492,122.378,338.435,122.117,338.435z"/>
	<path style="fill-rule:evenodd;clip-rule:evenodd;fill:#000000;" d="M148.553,325.46c2.778-0.357,5.527-1.281,6.926,2.004
		c1.168,2.741-0.212,7.534-2.974,9.491c-2.594,1.837-5.454,2.551-8.464,0.948c-1.675-0.891-1.768-2.54-1.493-4.122
		c0.74-4.236,1.618-8.447,2.408-12.675c0.385-2.059,1.917-1.897,3.339-1.685c1.753,0.26,0.887,1.451,0.72,2.41
		C148.818,322.956,148.722,324.101,148.553,325.46z M148.094,335.542c2.35-0.718,3.13-2.596,3.414-4.74
		c0.138-1.039-0.054-2.393-1.418-2.275c-2.725,0.235-2.732,2.72-3.314,4.636C146.422,334.328,146.844,335.167,148.094,335.542z"/>
	<path style="fill-rule:evenodd;clip-rule:evenodd;fill:#000000;" d="M324.504,293.581c-1.859,4.076-5.071,5.609-8.912,5.475
		c-3.32-0.115-6.042-1.609-6.611-5.411c-0.692-4.621,1.874-9.227,5.972-10.698c5.813-2.087,10.753,0.833,10.689,6.18
		c-0.023,1.922-0.685,2.497-2.51,2.427c-2.863-0.109-5.739,0.075-8.599-0.056c-2.891-0.133-2.668,1.291-1.677,3.081
		c1.32,2.386,4.677,2.643,7.004,0.215C321.214,293.383,322.354,292.673,324.504,293.581z M312.938,289.204c1.069,0,1.703,0,2.337,0
		c1.56,0,3.123,0.058,4.679-0.025c0.809-0.044,1.96,0.538,2.345-0.625c0.426-1.284-0.416-2.278-1.337-3.006
		C318.572,283.665,315.397,284.991,312.938,289.204z"/>
	<path style="fill-rule:evenodd;clip-rule:evenodd;fill:#000000;" d="M253.313,289.714c-0.126,5.395-4.475,9.57-9.866,9.472
		c-4.314-0.079-7.4-2.965-7.403-6.924c-0.005-5.677,4.655-10.259,10.227-10.056C250.804,282.373,253.419,285.161,253.313,289.714z
		 M243.879,296.499c3.193-0.066,6.271-3.612,6.221-7.305c-0.038-2.808-1.636-4.379-4.372-4.432c-3.315-0.065-6.009,3.413-6.04,7.369
		C239.665,295.003,240.93,296.532,243.879,296.499z"/>
	<path style="fill-rule:evenodd;clip-rule:evenodd;fill:#000000;" d="M200.02,288.032c-0.572,2.414-1.4,5.686-2.105,8.984
		c-0.322,1.504-1.205,1.818-2.527,1.636c-1.856-0.256-0.964-1.55-0.79-2.377c0.511-2.411,1.223-4.78,1.777-7.184
		c0.282-1.22,1.026-2.682-0.286-3.611c-1.246-0.882-2.826-0.545-4.135,0.043c-2.335,1.049-3.322,3.173-3.894,5.531
		c-0.49,2.02-1.141,4.017-1.436,6.065c-0.257,1.786-1.408,1.608-2.554,1.52c-2.043-0.158-0.808-1.592-0.664-2.285
		c0.819-3.941,1.81-7.846,2.734-11.766c0.25-1.059,0.882-2.546,1.888-1.775c2.562,1.965,4.45-0.275,6.626-0.539
		C198.176,281.846,200.19,283.647,200.02,288.032z"/>
	<path style="fill-rule:evenodd;clip-rule:evenodd;fill:#000000;" d="M166.535,324.8c2.973,0.049,4.725,0.762,3.533,4.365
		c-0.727,2.195-0.779,4.615-1.133,6.934c-0.137,0.895-0.484,2.493-1.139,2.163c-3.129-1.581-6.464,1.978-9.337-0.47
		c-2.075-1.77-1.781-4.202-1.125-6.539c1.033-3.675,3.522-5.664,7.299-6.092C165.273,325.087,165.902,324.921,166.535,324.8z
		 M164.271,328.343c-1.899,0.911-3.04,2.578-2.983,5.042c0.023,0.974,0.296,2.047,1.44,1.693c2.799-0.868,2.452-3.629,3.065-5.766
		C166.043,328.449,165.354,328.271,164.271,328.343z"/>
	<path style="fill-rule:evenodd;clip-rule:evenodd;fill:#000000;" d="M443.443,330.452c-0.263,1.502-0.688,3.804-1.062,6.115
		c-0.32,1.977-1.729,2.083-3.223,1.833c-1.995-0.333-0.966-1.73-0.805-2.744c0.241-1.541,0.63-3.059,0.866-4.6
		c0.131-0.856,0.498-1.952-0.653-2.377c-1.288-0.476-1.9,0.601-2.399,1.482c-0.911,1.609-1.222,3.413-1.42,5.238
		c-0.196,1.805-0.615,3.377-3.038,3.049c-3.103-0.422-0.92-2.305-0.976-3.524c-0.041-0.895,0.187-1.813,0.368-2.706
		c1.442-7.171,1.977-7.592,9.126-7.27C442.743,325.061,443.598,326.294,443.443,330.452z"/>
	<path style="fill-rule:evenodd;clip-rule:evenodd;fill:#000000;" d="M171.505,336.97c0.663-3.844,1.206-7.044,1.778-10.24
		c0.065-0.359,0.357-1.004,0.437-0.986c3.212,0.647,6.498-1.592,9.516-0.162c2.477,1.175,1.698,3.754,1.243,5.939
		c-0.37,1.778-0.805,3.55-1.037,5.347c-0.266,2.059-1.766,1.586-2.958,1.514c-1.72-0.104-1.098-1.473-0.992-2.384
		c0.194-1.674,0.571-3.325,0.837-4.99c0.139-0.874,0.452-1.969-0.626-2.363c-1.248-0.456-2.057,0.599-2.362,1.523
		c-0.729,2.203-1.306,4.473-1.722,6.755c-0.318,1.746-1.512,1.464-2.647,1.506C171.348,338.492,171.451,337.413,171.505,336.97z"/>
	<path style="fill-rule:evenodd;clip-rule:evenodd;fill:#000000;" d="M416.06,327.441c-0.567,3.082-1.147,6.161-1.689,9.246
		c-0.116,0.656-0.301,1.724-0.869,1.511c-2.948-1.103-5.763,1.014-8.609,0.212c-1.439-0.406-2.046-1.818-1.923-3.124
		c0.282-2.976,0.755-5.946,1.35-8.876c0.338-1.663,1.897-1.009,2.966-1.037c1.51-0.038,1.098,1.027,0.944,1.92
		c-0.336,1.929-0.682,3.857-0.944,5.797c-0.101,0.738-0.254,1.686,0.754,1.964c0.842,0.232,1.503-0.314,1.959-0.97
		c1.482-2.127,1.597-4.676,1.972-7.102c0.315-2.033,1.684-1.582,2.922-1.64C416.717,325.258,416.204,326.435,416.06,327.441z"/>
	<path style="fill-rule:evenodd;clip-rule:evenodd;fill:#000000;" d="M214.567,292.434c0.038,1.588,0.023,3.254,1.937,3.835
		c1.761,0.536,3.36,0.143,4.598-1.288c0.508-0.587,0.883-1.29,1.4-1.868c0.924-1.033,2.116-0.439,2.862,0.028
		c0.881,0.552-0.104,1.384-0.436,1.974c-1.705,3.025-5.611,4.557-9.068,3.723c-3.05-0.737-4.678-2.682-4.948-5.74
		c-0.374-4.248,2.311-8.79,5.898-10.132c4.05-1.517,8.516-0.451,9.667,2.429c0.264,0.661,1.201,1.768-0.134,2.312
		c-0.78,0.318-2.178,0.713-2.528-0.149c-1.213-2.988-3.527-3.031-5.753-2.044C215.236,286.765,214.681,289.585,214.567,292.434z"/>
	<path style="fill-rule:evenodd;clip-rule:evenodd;fill:#000000;" d="M250.615,333.846c1.509,1.964,3.007,1.802,4.568,1.25
		c0.818-0.29,1.583-0.39,1.839,0.671c0.219,0.906,0.24,1.674-0.87,2.265c-2.261,1.204-6.882,0.696-8.442-1.117
		c-1.914-2.226-1.533-6.715,0.8-9.437c2.065-2.41,6.209-3.273,8.51-1.765c1.34,0.879,1.842,2.168,1.693,3.715
		c-0.152,1.585-1.013,2.729-2.524,3.169C254.495,333.088,252.74,333.378,250.615,333.846z"/>
	<path style="fill-rule:evenodd;clip-rule:evenodd;fill:#000000;" d="M245.316,326.897c-0.597,3.439-1.089,6.392-1.637,9.336
		c-0.116,0.624-0.496,1.75-0.654,1.732c-3.144-0.345-6.417,1.396-9.318,0.142c-2.439-1.055-1.655-3.797-1.281-5.972
		c0.309-1.792,0.841-3.55,1.06-5.348c0.264-2.181,1.856-1.383,2.967-1.404c1.845-0.038,1.088,1.399,0.99,2.258
		c-0.192,1.676-0.598,3.326-0.864,4.996c-0.14,0.881-0.421,1.977,0.699,2.357c1.274,0.434,2.036-0.695,2.327-1.568
		c0.737-2.21,1.243-4.507,1.717-6.794c0.431-2.078,2.002-1.208,3.115-1.235C246.001,325.361,245.302,326.603,245.316,326.897z"/>
	<path style="fill-rule:evenodd;clip-rule:evenodd;fill:#000000;" d="M210.988,330.84c-0.119,4.649-3.571,8.053-7.969,7.86
		c-3.364-0.148-5.551-2.503-5.452-5.869c0.133-4.481,3.81-8.087,8.072-7.916C209.01,325.049,211.077,327.341,210.988,330.84z
		 M204.608,328.299c-2.214,0.754-2.561,2.672-2.647,4.661c-0.054,1.243,0.445,2.705,1.838,2.418
		c2.448-0.505,2.894-2.787,3.047-4.881C206.94,329.224,206.148,328.309,204.608,328.299z"/>
	<path style="fill-rule:evenodd;clip-rule:evenodd;fill:#000000;" d="M276.099,334.502c0.459-2.388,1.041-5.064,1.473-7.764
		c0.34-2.125,1.926-1.374,3.039-1.337c1.821,0.061,0.967,1.521,0.886,2.368c-0.162,1.683-0.571,3.34-0.836,5.015
		c-0.139,0.889-0.394,1.979,0.829,2.253c1.017,0.228,1.645-0.589,2.134-1.386c1.13-1.843,1.251-4,1.523-6.025
		c0.291-2.148,1.369-2.52,3.12-2.281c2.349,0.323,0.923,1.964,0.951,3.009c0.025,0.884-0.241,1.818-0.558,2.663
		c-0.889,2.379,0.309,5.988-2.14,7.061c-1.836,0.805-4.546,0.047-6.95,0.51C277.235,339.036,276.237,337.053,276.099,334.502z"/>
	<path style="fill-rule:evenodd;clip-rule:evenodd;fill:#000000;" d="M361.726,333.165c0.263-1.497,0.717-3.8,1.064-6.119
		c0.324-2.159,1.919-1.774,3.284-1.667c1.931,0.15,0.877,1.473,0.747,2.327c-0.277,1.806-0.666,3.593-1.01,5.387
		c-0.162,0.847,0.011,1.644,0.819,1.996c0.859,0.375,1.479-0.317,1.924-0.908c1.398-1.853,1.659-4.103,1.843-6.303
		c0.194-2.285,1.454-2.898,3.417-2.51c2.417,0.476,0.697,1.983,0.591,2.993c-0.192,1.811-0.55,3.608-0.913,5.397
		c-0.535,2.643-0.159,6.487-4.917,3.893c-0.29-0.159-0.91,0.332-1.39,0.473C363.025,339.363,361.562,338.258,361.726,333.165z"/>
	<path style="fill-rule:evenodd;clip-rule:evenodd;fill:#000000;" d="M338.162,333.579c1.192,2.226,2.787,2.048,4.482,1.606
		c0.675-0.176,1.538-0.857,1.814,0.441c0.222,1.039,0.387,2.086-1.067,2.496c-2.881,0.814-5.745,1.158-8.066-1.184
		c-1.89-1.908-1.486-6.571,0.569-9.123c2.053-2.548,6.002-3.606,8.44-2.258c1.424,0.787,1.901,2.024,1.863,3.606
		c-0.039,1.625-0.766,2.672-2.206,3.385C342.237,333.418,340.266,333.218,338.162,333.579z"/>
	<path style="fill-rule:evenodd;clip-rule:evenodd;fill:#000000;" d="M458.539,330.502c0.073,4.747-3.083,8.19-7.526,8.212
		c-3.435,0.018-5.665-2.139-5.727-5.536c-0.082-4.54,3.292-8.192,7.625-8.252C456.303,324.879,458.486,327.043,458.539,330.502z
		 M449.627,332.16c0,1.63-0.036,3.371,1.694,3.229c2.398-0.195,2.818-2.411,3.076-4.373c0.183-1.391-0.141-2.913-1.927-2.67
		C450.268,328.645,449.825,330.562,449.627,332.16z"/>
	<path style="fill-rule:evenodd;clip-rule:evenodd;fill:#000000;" d="M421.347,333.851c1.356,1.938,2.867,1.728,4.447,1.35
		c0.748-0.178,1.816-1.062,1.931,0.665c0.057,0.891,0.209,1.658-0.949,2.223c-2.359,1.153-6.844,0.596-8.37-1.274
		c-1.885-2.309-1.29-7.09,1.289-9.652c2.379-2.363,5.226-2.992,8.154-1.299c2.583,1.495,2.092,5.087-0.641,6.669
		C425.471,333.539,423.426,332.944,421.347,333.851z"/>
	<path style="fill-rule:evenodd;clip-rule:evenodd;fill:#000000;" d="M394.459,338.65c-0.237-0.02-0.948,0.075-1.513-0.169
		c-0.809-0.347-2.382-0.142-1.872-1.796c0.331-1.074,0.637-2.358,2.373-1.465c0.896,0.461,2.233,0.846,2.799-0.244
		c0.691-1.329-0.803-1.613-1.608-2.152c-2.327-1.559-3.074-3.516-1.302-5.921c1.307-1.772,6.054-2.579,7.599-1.495
		c0.78,0.548,0.341,1.072,0.258,1.678c-0.212,1.551-1.168,1.412-2.265,1.108c-0.778-0.217-1.59-0.296-1.91,0.675
		c-0.278,0.847,0.484,1.1,1.024,1.396c2.135,1.166,3.571,2.697,2.658,5.334C400.029,337.541,397.789,338.661,394.459,338.65z"/>
	<path style="fill-rule:evenodd;clip-rule:evenodd;fill:#000000;" d="M464.917,328.7c0.2,1.221,1.05,1.42,1.688,1.793
		c1.551,0.905,2.859,2.061,2.587,3.985c-0.273,1.934-1.483,3.277-3.463,3.809c-2.071,0.555-4.135,0.716-6.053-0.405
		c-0.923-0.539-0.305-1.327-0.042-2.043c0.357-0.972,0.904-1.052,1.797-0.692c1.058,0.429,2.531,1.012,3.064-0.304
		c0.61-1.5-1.27-1.663-2.094-2.331c-2.346-1.901-2.33-3.918-0.382-5.994c1.502-1.603,6.266-2.152,7.306-0.95
		c0.513,0.595,0.124,1.227,0.025,1.848c-0.13,0.81-0.661,1.138-1.373,0.936C466.931,328.054,465.947,327.875,464.917,328.7z"/>
	<path style="fill-rule:evenodd;clip-rule:evenodd;fill:#000000;" d="M379.226,338.676c-0.625-0.033-1.202,0.074-1.656-0.115
		c-0.938-0.392-2.618-0.061-2.239-1.948c0.341-1.693,1.22-2.005,2.795-1.235c0.714,0.35,1.934,0.614,2.406-0.469
		c0.514-1.183-0.66-1.476-1.396-1.952c-2.252-1.458-3.545-3.308-1.647-5.826c1.933-2.564,4.702-2.402,7.481-1.777
		c0.877,0.197,0.763,0.797,0.599,1.504c-0.277,1.176-0.699,1.944-2.108,1.42c-0.891-0.331-1.891-0.481-2.322,0.604
		c-0.314,0.792,0.548,1.044,1.087,1.357c2.049,1.189,3.771,2.603,2.682,5.303C383.871,338.113,381.599,338.629,379.226,338.676z"/>
	<path style="fill-rule:evenodd;clip-rule:evenodd;fill:#000000;" d="M273.11,324.875c0.598,0.733,2.601-0.534,2.351,1.621
		c-0.158,1.354-0.659,2.07-2.227,1.985c-2.682-0.147-4.064,1.328-4.299,3.962c-0.182,2.025,0.873,2.949,2.75,2.848
		c1.008-0.053,2.019-0.805,2.081,1.062c0.052,1.559-0.755,2.129-2.055,2.253c-2.256,0.218-4.487,0.152-6.074-1.822
		c-1.66-2.068-1.445-4.375-0.575-6.662C266.448,326.481,269.475,325.248,273.11,324.875z"/>
	<path style="fill-rule:evenodd;clip-rule:evenodd;fill:#000000;" d="M352.9,335.258c-0.012-3.092,1.322-5.466-0.056-8.253
		c-0.381-0.769,1.65-4.401,4.523-4.917c1.327-0.239,2.368-0.003,1.559,1.48c-1.43,2.619,2.747,0.885,2.253,3.318
		c-0.471,2.329-3.498,0.632-3.395,2.926c0.085,1.933-2.227,4.113,0.84,5.803c0.626,0.345,0.522,2.483-0.757,2.871
		c-1.739,0.527-3.733,0.598-4.744-1.486C352.8,336.34,352.922,335.464,352.9,335.258z"/>
	<path style="fill-rule:evenodd;clip-rule:evenodd;fill:#000000;" d="M192.065,338.639c-2.245,0.014-4.147-0.688-5.068-2.889
		c-1.23-2.941-0.476-5.639,1.457-8.002c1.685-2.059,4.096-2.745,6.628-2.768c0.834-0.007,2.363-0.276,2.368,1.282
		c0.005,1.207-0.455,2.337-2.084,2.183c-1.911-0.182-3.268,0.674-4.107,2.345c-1.195,2.38-0.266,4.295,2.219,4.5
		c1.004,0.083,2.418-0.992,2.399,1.203c-0.016,1.872-1.333,1.969-2.641,2.138C192.852,338.68,192.456,338.639,192.065,338.639z"/>
	<path style="fill-rule:evenodd;clip-rule:evenodd;fill:#000000;" d="M376.913,276.704c1.562-0.151,1.798,0.543,1.483,1.876
		c-1.459,6.178-2.865,12.371-4.261,18.563c-0.413,1.832-1.816,1.719-3.056,1.45c-1.671-0.363-0.713-1.717-0.535-2.512
		c1.284-5.69,2.657-11.36,4.078-17.017C374.916,277.9,374.986,276.276,376.913,276.704z"/>
	<path style="fill-rule:evenodd;clip-rule:evenodd;fill:#000000;" d="M327.034,336.428c1.009-5.108,2.095-10.202,2.986-15.331
		c0.328-1.892,1.482-1.81,2.824-1.744c2.022,0.097,1.402,1.563,1.211,2.582c-0.911,4.86-2.027,9.683-2.844,14.556
		c-0.304,1.806-1.233,1.955-2.673,1.975C326.932,338.489,326.883,337.609,327.034,336.428z"/>
	<path style="fill-rule:evenodd;clip-rule:evenodd;fill:#000000;" d="M130.421,336.541c0.959-5.159,1.908-10.019,2.745-14.899
		c0.345-2.005,1.487-2.648,3.303-2.262c2.338,0.498,0.849,2.056,0.676,3.096c-0.774,4.627-1.738,9.223-2.491,13.852
		c-0.316,1.944-1.449,2.21-3.057,2.113C129.888,338.339,130.176,337.326,130.421,336.541z"/>
	<path style="fill-rule:evenodd;clip-rule:evenodd;fill:#000000;" d="M343.603,278.01c-1.572,6.575-3.148,13.009-4.634,19.464
		c-0.363,1.584-1.493,1.152-2.44,1.162c-1.655,0.017-0.966-1.101-0.788-1.875c1.385-6.074,2.794-12.142,4.198-18.211
		c0.297-1.281,0.918-2.034,2.43-1.894C343.435,276.756,343.702,277.222,343.603,278.01z"/>
	<path style="fill-rule:evenodd;clip-rule:evenodd;fill:#000000;" d="M434.852,324.095c0.336-1.955,0.595-3.427,2.062-3.697
		c1.775-0.328,3.625,0.629,5.494-0.291c0.435-0.214,0.417,1.026,0.24,1.613c-0.387,1.287-1.564,2.326-2.589,1.79
		C438.3,322.591,436.896,323.71,434.852,324.095z"/>
	<path style="fill-rule:evenodd;clip-rule:evenodd;fill:#000000;" d="M94.37,284.77c0.616,0.531,1.234,1.063,2.273,1.959
		c-1.798,0.135-2.405-0.545-2.949-1.34C93.919,285.182,94.145,284.976,94.37,284.77z"/>
</g>
</svg>
